<svg width="42" height="42" viewBox="0 0 42 42" fill="none" xmlns="http://www.w3.org/2000/svg">
<path id="Vector" d="M21 21C18.1125 21 15.6406 19.9719 13.5844 17.9156C11.5281 15.8594 10.5 13.3875 10.5 10.5C10.5 7.6125 11.5281 5.14062 13.5844 3.08437C15.6406 1.02812 18.1125 0 21 0C23.8875 0 26.3594 1.02812 28.4156 3.08437C30.4719 5.14062 31.5 7.6125 31.5 10.5C31.5 13.3875 30.4719 15.8594 28.4156 17.9156C26.3594 19.9719 23.8875 21 21 21ZM0 42V34.65C0 33.1625 0.382812 31.7953 1.14844 30.5484C1.91406 29.3016 2.93125 28.35 4.2 27.6937C6.9125 26.3375 9.66875 25.3203 12.4687 24.6422C15.2687 23.9641 18.1125 23.625 21 23.625C23.8875 23.625 26.7312 23.9641 29.5312 24.6422C32.3312 25.3203 35.0875 26.3375 37.8 27.6937C39.0687 28.35 40.0859 29.3016 40.8516 30.5484C41.6172 31.7953 42 33.1625 42 34.65V42H0Z" fill="black"/>
</svg>
