<svg width="48" height="47" viewBox="0 0 48 47" fill="none" xmlns="http://www.w3.org/2000/svg">
<path id="Vector" d="M45.8308 0.0299072H2.61526C1.57598 0.0299072 0.736328 0.869556 0.736328 1.90884V45.1243C0.736328 46.1636 1.57598 47.0033 2.61526 47.0033H45.8308C46.87 47.0033 47.7097 46.1636 47.7097 45.1243V1.90884C47.7097 0.869556 46.87 0.0299072 45.8308 0.0299072ZM29.302 14.0573H37.4284V16.0361H29.302V14.0573ZM24.223 30.3747C23.8429 31.0962 23.3002 31.7194 22.6377 32.1949C21.9448 32.6764 21.1756 33.0287 20.3595 33.2342C19.5056 33.463 18.6247 33.5756 17.7407 33.5689H8.0172V13.5406H17.4706C18.4277 13.5406 19.2967 13.6287 20.0894 13.7931C20.8762 13.9575 21.5455 14.2394 22.1092 14.621C22.667 15.0027 23.1074 15.5135 23.4186 16.1476C23.7239 16.7759 23.8825 17.5627 23.8825 18.4963C23.8825 19.5062 23.6535 20.34 23.1955 21.0153C22.7316 21.6905 22.0622 22.2366 21.1521 22.6652C22.3911 23.0175 23.3012 23.6458 23.9001 24.5265C24.5107 25.419 24.8102 26.4877 24.8102 27.7442C24.8102 28.7659 24.6164 29.6407 24.223 30.3747ZM40.5932 27.2745H30.1182C30.1182 28.4136 30.5116 29.5057 31.1046 30.0929C31.7035 30.6742 32.5608 30.9677 33.6823 30.9677C34.4926 30.9677 35.1796 30.7622 35.7667 30.3571C36.348 29.9519 36.7003 29.5233 36.8295 29.0771H40.3407C39.7771 30.821 38.9198 32.0657 37.7572 32.8173C36.6064 33.5689 35.1972 33.9447 33.559 33.9447C32.414 33.9447 31.3864 33.7568 30.4646 33.3986C29.578 33.0522 28.7794 32.5237 28.1218 31.8426C27.4734 31.1432 26.9722 30.3205 26.648 29.4235C26.2898 28.4312 26.1137 27.386 26.1254 26.335C26.1254 25.2487 26.3075 24.2388 26.6598 23.2993C27.335 21.4732 28.7383 20.0112 30.5292 19.2538C31.4863 18.8545 32.5138 18.6548 33.5531 18.6666C34.7862 18.6666 35.8548 18.9015 36.7825 19.3829C37.6756 19.8427 38.4511 20.5016 39.049 21.3088C39.642 22.1133 40.0589 23.0292 40.3231 24.0627C40.5756 25.0785 40.6637 26.1471 40.5932 27.2745ZM33.4298 21.6611C32.7957 21.6611 32.2613 21.7727 31.8503 21.99C31.4393 22.2072 31.0987 22.4773 30.8404 22.7885C30.5943 23.089 30.4125 23.4367 30.3061 23.8102C30.2121 24.1214 30.1475 24.4384 30.124 24.7614H36.6122C36.5183 23.7456 36.166 22.994 35.6963 22.4656C35.203 21.943 34.4104 21.6611 33.4298 21.6611ZM18.8387 21.0681C19.3495 20.6982 19.5961 20.0875 19.5961 19.2479C19.6138 18.8486 19.5315 18.4552 19.3554 18.097C19.1969 17.8093 18.962 17.5686 18.6743 17.3983C18.376 17.2174 18.0446 17.0976 17.6996 17.046C17.3238 16.9755 16.9421 16.9403 16.5664 16.9462H12.4386V21.6259H16.9069C17.6761 21.6318 18.3279 21.4439 18.8387 21.0681ZM19.5315 25.2957C18.9561 24.8553 18.1869 24.6381 17.2299 24.6381H12.4268V30.1574H17.1359C17.5763 30.1574 17.9814 30.1164 18.3748 30.0341C18.7682 29.9519 19.1205 29.811 19.42 29.6114C19.7194 29.4176 19.9602 29.1534 20.1422 28.8128C20.3184 28.4723 20.4064 28.0378 20.4064 27.5152C20.4064 26.4759 20.1128 25.742 19.5315 25.2957Z" fill="#535353"/>
</svg>
