<svg width="48" height="48" viewBox="0 0 48 48" fill="none" xmlns="http://www.w3.org/2000/svg">
<path id="Vector" d="M46.08 0H1.92C0.858 0 0 0.858 0 1.92V46.08C0 47.142 0.858 48 1.92 48H46.08C47.142 48 48 47.142 48 46.08V1.92C48 0.858 47.142 0 46.08 0ZM29.19 14.334H37.494V16.356H29.19V14.334ZM24 31.008C23.6116 31.7453 23.057 32.3821 22.38 32.868C21.672 33.36 20.886 33.72 20.052 33.93C19.1794 34.1638 18.2793 34.2789 17.376 34.272H7.44V13.806H17.1C18.078 13.806 18.966 13.896 19.776 14.064C20.58 14.232 21.264 14.52 21.84 14.91C22.41 15.3 22.86 15.822 23.178 16.47C23.49 17.112 23.652 17.916 23.652 18.87C23.652 19.902 23.418 20.754 22.95 21.444C22.476 22.134 21.792 22.692 20.862 23.13C22.128 23.49 23.058 24.132 23.67 25.032C24.294 25.944 24.6 27.036 24.6 28.32C24.6 29.364 24.402 30.258 24 31.008ZM40.728 27.84H30.024C30.024 29.004 30.426 30.12 31.032 30.72C31.644 31.314 32.52 31.614 33.666 31.614C34.494 31.614 35.196 31.404 35.796 30.99C36.39 30.576 36.75 30.138 36.882 29.682H40.47C39.894 31.464 39.018 32.736 37.83 33.504C36.654 34.272 35.214 34.656 33.54 34.656C32.37 34.656 31.32 34.464 30.378 34.098C29.472 33.744 28.656 33.204 27.984 32.508C27.3214 31.7932 26.8093 30.9526 26.478 30.036C26.112 29.022 25.932 27.954 25.944 26.88C25.944 25.77 26.13 24.738 26.49 23.778C27.18 21.912 28.614 20.418 30.444 19.644C31.422 19.236 32.472 19.032 33.534 19.044C34.794 19.044 35.886 19.284 36.834 19.776C37.7466 20.2458 38.539 20.9192 39.15 21.744C39.756 22.566 40.182 23.502 40.452 24.558C40.71 25.596 40.8 26.688 40.728 27.84ZM33.408 22.104C32.76 22.104 32.214 22.218 31.794 22.44C31.374 22.662 31.026 22.938 30.762 23.256C30.5106 23.563 30.3248 23.9183 30.216 24.3C30.12 24.618 30.054 24.942 30.03 25.272H36.66C36.564 24.234 36.204 23.466 35.724 22.926C35.22 22.392 34.41 22.104 33.408 22.104ZM18.498 21.498C19.02 21.12 19.272 20.496 19.272 19.638C19.29 19.23 19.206 18.828 19.026 18.462C18.864 18.168 18.624 17.922 18.33 17.748C18.0252 17.5631 17.6866 17.4408 17.334 17.388C16.95 17.316 16.56 17.28 16.176 17.286H11.958V22.068H16.524C17.31 22.074 17.976 21.882 18.498 21.498ZM19.206 25.818C18.618 25.368 17.832 25.146 16.854 25.146H11.946V30.786H16.758C17.208 30.786 17.622 30.744 18.024 30.66C18.426 30.576 18.786 30.432 19.092 30.228C19.398 30.03 19.644 29.76 19.83 29.412C20.01 29.064 20.1 28.62 20.1 28.086C20.1 27.024 19.8 26.274 19.206 25.818Z" fill="white"/>
</svg>
