<svg width="34" height="42" viewBox="0 0 34 42" fill="none" xmlns="http://www.w3.org/2000/svg">
<path id="Vector" d="M17.1999 25.2C18.3549 25.2 19.3437 24.7887 20.1662 23.9662C20.9887 23.1437 21.3999 22.155 21.3999 21C21.3999 19.845 20.9887 18.8562 20.1662 18.0337C19.3437 17.2113 18.3549 16.8 17.1999 16.8C16.0449 16.8 15.0562 17.2113 14.2337 18.0337C13.4112 18.8562 12.9999 19.845 12.9999 21C12.9999 22.155 13.4112 23.1437 14.2337 23.9662C15.0562 24.7887 16.0449 25.2 17.1999 25.2ZM8.7999 33.6H25.5999V32.3925C25.5999 31.5525 25.3724 30.7825 24.9174 30.0825C24.4624 29.3825 23.8324 28.8575 23.0274 28.5075C22.1174 28.1225 21.1812 27.825 20.2187 27.615C19.2562 27.405 18.2499 27.3 17.1999 27.3C16.1499 27.3 15.1437 27.405 14.1812 27.615C13.2187 27.825 12.2824 28.1225 11.3724 28.5075C10.5674 28.8575 9.9374 29.3825 9.4824 30.0825C9.0274 30.7825 8.7999 31.5525 8.7999 32.3925V33.6ZM29.7999 42H4.5999C3.4449 42 2.45615 41.5887 1.63365 40.7663C0.811152 39.9437 0.399902 38.955 0.399902 37.8V4.2C0.399902 3.045 0.811152 2.05625 1.63365 1.23375C2.45615 0.41125 3.4449 0 4.5999 0H21.3999L33.9999 12.6V37.8C33.9999 38.955 33.5886 39.9437 32.7662 40.7663C31.9437 41.5887 30.9549 42 29.7999 42Z" fill="black"/>
</svg>
