<svg width="46" height="46" viewBox="0 0 46 46" fill="none" xmlns="http://www.w3.org/2000/svg">
<path id="footer-social__ins" d="M13.6153 0.142822C6.26478 0.142822 0.285645 6.1275 0.285645 13.4799V32.5275C0.285645 39.878 6.27032 45.8571 13.6227 45.8571H32.6703C40.0208 45.8571 45.9999 39.8724 45.9999 32.5201V13.4724C45.9999 6.12196 40.0153 0.142822 32.6629 0.142822H13.6153ZM36.4761 7.76187C37.5276 7.76187 38.3809 8.6152 38.3809 9.66663C38.3809 10.7181 37.5276 11.5714 36.4761 11.5714C35.4247 11.5714 34.5714 10.7181 34.5714 9.66663C34.5714 8.6152 35.4247 7.76187 36.4761 7.76187ZM23.1428 11.5714C29.4457 11.5714 34.5714 16.6971 34.5714 23C34.5714 29.3028 29.4457 34.4285 23.1428 34.4285C16.8399 34.4285 11.7142 29.3028 11.7142 23C11.7142 16.6971 16.8399 11.5714 23.1428 11.5714ZM23.1428 15.3809C21.1221 15.3809 19.1842 16.1836 17.7553 17.6125C16.3265 19.0413 15.5237 20.9793 15.5237 23C15.5237 25.0207 16.3265 26.9586 17.7553 28.3874C19.1842 29.8163 21.1221 30.619 23.1428 30.619C25.1635 30.619 27.1014 29.8163 28.5303 28.3874C29.9591 26.9586 30.7618 25.0207 30.7618 23C30.7618 20.9793 29.9591 19.0413 28.5303 17.6125C27.1014 16.1836 25.1635 15.3809 23.1428 15.3809Z" fill="white"/>
</svg>
