<svg width="45" height="45" viewBox="0 0 45 45" fill="none" xmlns="http://www.w3.org/2000/svg">
<path id="footer-social__ins" d="M13.0445 0.148315C5.85125 0.148315 0 6.00499 0 13.2001V31.8403C0 39.0336 5.85667 44.8849 13.0518 44.8849H31.692C38.8853 44.8849 44.7365 39.0282 44.7365 31.8331V13.1928C44.7365 5.99957 38.8799 0.148315 31.6847 0.148315H13.0445ZM35.4164 7.60441C36.4454 7.60441 37.2805 8.43949 37.2805 9.46843C37.2805 10.4974 36.4454 11.3325 35.4164 11.3325C34.3875 11.3325 33.5524 10.4974 33.5524 9.46843C33.5524 8.43949 34.3875 7.60441 35.4164 7.60441ZM22.3683 11.3325C28.5363 11.3325 33.5524 16.3485 33.5524 22.5166C33.5524 28.6846 28.5363 33.7007 22.3683 33.7007C16.2002 33.7007 11.1841 28.6846 11.1841 22.5166C11.1841 16.3485 16.2002 11.3325 22.3683 11.3325ZM22.3683 15.0605C20.3908 15.0605 18.4943 15.846 17.096 17.2443C15.6977 18.6426 14.9122 20.5391 14.9122 22.5166C14.9122 24.4941 15.6977 26.3906 17.096 27.7888C18.4943 29.1871 20.3908 29.9727 22.3683 29.9727C24.3458 29.9727 26.2422 29.1871 27.6405 27.7888C29.0388 26.3906 29.8244 24.4941 29.8244 22.5166C29.8244 20.5391 29.0388 18.6426 27.6405 17.2443C26.2422 15.846 24.3458 15.0605 22.3683 15.0605Z" fill="#535353"/>
</svg>
