<?xml version="1.0" encoding="UTF-8"?>
<svg id="Capa_2" data-name="Capa 2" xmlns="http://www.w3.org/2000/svg" viewBox="0 0 145.45 30.51">
  <g id="Capa_1-2" data-name="Capa 1">
    <g>
      <path d="M90.79,0h5.14v30.51h-5.14V0Z"/>
      <path d="M143.45,7.21c-1.34-2.31-3.2-4.09-5.6-5.34-2.4-1.25-5.22-1.87-8.48-1.87h-28.3v30.51h28.3c3.25,0,6.08-.61,8.48-1.83s4.26-2.96,5.6-5.23,2.01-4.95,2.01-8.06-.67-5.86-2.01-8.17ZM137.37,23.34c-1.87,1.9-4.55,2.86-8.04,2.86h-5.71s-17.4,0-17.4,0V4.31h23.11c3.49,0,6.17.99,8.04,2.96,1.87,1.98,2.81,4.68,2.81,8.11s-.94,6.05-2.81,7.95Z"/>
      <path d="M2.01,23.29c1.34,2.31,3.2,4.09,5.6,5.34,2.4,1.25,5.22,1.87,8.48,1.87h28.3V0h-28.3c-3.25,0-6.08.61-8.48,1.83S3.34,4.79,2.01,7.06,0,12.01,0,15.12s.67,5.86,2.01,8.17ZM8.08,7.17c1.87-1.9,4.55-2.86,8.04-2.86h5.71s17.4,0,17.4,0v21.88h-23.11c-3.49,0-6.17-.99-8.04-2.96-1.87-1.98-2.81-4.68-2.81-8.11s.94-6.05,2.81-7.95Z"/>
      <polygon points="54.66 0 54.66 0 49.52 0 49.52 30.51 54.66 30.51 54.66 9.42 68.36 30.51 74.49 30.51 54.67 0 54.66 0"/>
      <polygon points="80.51 30.5 80.51 30.51 85.65 30.51 85.65 0 80.51 0 80.51 21.08 66.81 0 60.67 0 80.49 30.51 80.51 30.5"/>
    </g>
  </g>
</svg>