<svg width="43" height="42" viewBox="0 0 43 42" fill="none" xmlns="http://www.w3.org/2000/svg">
<path id="Vector" d="M4.96647 42C3.68314 42 2.58453 41.5431 1.67064 40.6292C0.756749 39.7153 0.299805 38.6167 0.299805 37.3333V4.66667C0.299805 3.38333 0.756749 2.28472 1.67064 1.37083C2.58453 0.456944 3.68314 0 4.96647 0H37.6331C38.9165 0 40.0151 0.456944 40.929 1.37083C41.8429 2.28472 42.2998 3.38333 42.2998 4.66667V37.3333C42.2998 38.6167 41.8429 39.7153 40.929 40.6292C40.0151 41.5431 38.9165 42 37.6331 42H4.96647ZM7.2998 32.6667H35.2998L26.5498 21L19.5498 30.3333L14.2998 23.3333L7.2998 32.6667Z" fill="black"/>
</svg>
