<svg width="42" height="42" viewBox="0 0 42 42" fill="none" xmlns="http://www.w3.org/2000/svg">
<path id="Vector" d="M14.28 18.795L18.795 14.2275L15.855 11.235L13.545 13.545L10.605 10.605L12.8625 8.295L10.5 5.9325L5.9325 10.5L14.28 18.795ZM31.5 36.0675L36.0675 31.5L33.705 29.1375L31.395 31.395L28.455 28.455L30.7125 26.145L27.72 23.205L23.205 27.72L31.5 36.0675ZM11.025 39.9H2.1V30.975L11.2875 21.7875L0 10.5L10.5 0L21.84 11.34L29.7675 3.36C30.1875 2.94 30.66 2.625 31.185 2.415C31.71 2.205 32.2525 2.1 32.8125 2.1C33.3725 2.1 33.915 2.205 34.44 2.415C34.965 2.625 35.4375 2.94 35.8575 3.36L38.64 6.195C39.06 6.615 39.375 7.0875 39.585 7.6125C39.795 8.1375 39.9 8.68 39.9 9.24C39.9 9.8 39.795 10.3337 39.585 10.8412C39.375 11.3488 39.06 11.8125 38.64 12.2325L30.7125 20.2125L42 31.5L31.5 42L20.2125 30.7125L11.025 39.9ZM6.3 35.7H9.24L29.82 15.1725L26.8275 12.18L6.3 32.76V35.7ZM28.35 13.7025L26.8275 12.18L29.82 15.1725L28.35 13.7025Z" fill="black"/>
</svg>
